<?xml version="1.0" encoding="iso-8859-1"?>
<!-- Generator: Adobe Illustrator 19.0.0, SVG Export Plug-In . SVG Version: 6.00 Build 0)  -->
<svg version="1.1" id="Capa_1" xmlns="http://www.w3.org/2000/svg" xmlns:xlink="http://www.w3.org/1999/xlink" x="0px" y="0px"
	 viewBox="0 0 512 512" style="enable-background:new 0 0 512 512;" xml:space="preserve">
<g>
	<g>
		<path d="M421.31,443.44c-0.808-4.063-4.755-6.705-8.82-5.891c-4.063,0.809-6.699,4.758-5.891,8.82
			c7.376,37.393,7.186,35.298,7.235,37.348c0.178,7.105-5.537,13.282-13.023,13.282h-25.453V378.183
			c3.135,1.3,6.601,2.645,10.152,5.407c0.001,0,0.002,0.001,0.002,0.001c0.001,0.001,0.014,0.01,0.015,0.011
			c12.836,9.582,12.739,22.926,14.218,28.343c0.809,4.062,4.76,6.7,8.82,5.891c4.063-0.809,6.699-4.758,5.891-8.82
			c-2.463-12.325-2.737-12.598-2.707-12.498c-5.635-18.489-17.273-27.173-34.61-33.761l-52.666-20.986l-23.518-17.65v-2.554
			c10.056-5.372,19.204-12.551,26.963-21.313c27.097-30.597,24.603-64.842,24.645-65.067c23.328-4.964,33.456-28.094,21.84-45.333
			c-0.015-19.789,0.026-22.725-0.031-27.635h25.946c10.514,0,15.061-12.785,7.104-19.164l-33.671-36.77l-10.687-52.037
			c-3.505-17.068-18.587-29.456-35.861-29.456c-14.608,0-34.246,0-49.876,0V21c-0.001-11.579-9.422-21-21.002-21
			s-21.001,9.421-21.001,21.001v3.79c-4.548,0-43.764,0-48.561,0c-18.036,0-33.784,12.936-37.444,30.759l-10.417,50.731
			l-33.794,36.85c-7.926,6.364-3.382,19.087,7.078,19.087h25.14c-0.06,5.19-0.007-4.519-0.031,28.981
			c-10.313,17.245,0.144,39.188,22.691,43.987v0.052c0,36.063,19.781,69.053,51.064,86.025v2.856l-23.519,17.65
			c-56.737,22.606-65.232,24.3-75.404,34.473c-4.115,3.977-7.755,9.33-10.399,15.977c-3.627,9.255-3.375,15.279-18.017,86.286
			C80.281,495.697,93.36,512,111.191,512c12.593,0,276.643,0,289.64,0c16.18,0,28.378-13.444,27.998-28.65
			C428.792,481.733,428.336,479.398,421.31,443.44z M307.58,347.849l-22.633,13.715c12.763-17.142,14.616-19.579,14.69-19.677
			L307.58,347.849z M299.61,341.867l0.026,0.02C299.612,341.918,299.248,342.393,299.61,341.867z M349.108,168.617
			c0,0,0-0.001-0.001-0.001c-2.613-4.082-5.34-5.168-6.613-6.398h16.891c0.029,2.507,0.012,2.968,0.017,15.609
			c-2.211-0.923-4.856-1.756-7.39-2.248C351.469,173.151,350.476,170.731,349.108,168.617z M352.561,219.598v-28.309
			C368.081,196.987,368.081,213.896,352.561,219.598z M327.202,39.792v-0.001c10.186,0,19.089,7.349,21.168,17.474l9.253,45.057
			h-39.605c-5.058-43.984-3.872-51.474-8.514-62.531H327.202z M250.324,21.001c0-3.309,2.692-6.001,6.001-6.001
			s6.001,2.692,6.001,6.001v3.79h-12.002V21.001z M164.013,58.568c2.234-10.88,11.803-18.776,22.751-18.776h16.68
			c-1.598,3.65-2.823,7.87-3.589,12.556c-0.667,4.088,2.105,7.943,6.193,8.611c4.093,0.659,7.942-2.105,8.611-6.193
			c1.807-11.065,6.145-14.974,7.091-14.974c7.486,0,60.579,0,69.766,0c1.478,0.34,5.631,5.784,6.748,16.727l4.675,45.805h-93.23
			l1.327-13.004c0.421-4.121-2.578-7.803-6.699-8.223c-4.111-0.418-7.802,2.579-8.223,6.699l-1.483,14.527h-39.605L164.013,58.568z
			 M121.712,147.219l27.415-29.896c28.704,0,192.498,0,214.392,0l27.377,29.896C363.529,147.219,163.397,147.219,121.712,147.219z
			 M159.986,219.598c-15.517-5.702-15.517-22.608,0-28.309V219.598z M162.589,168.616c-1.354,2.095-2.34,4.457-2.903,6.963
			c-2.57,0.51-5.047,1.266-7.391,2.249c0.005-12.699-0.012-13.116,0.017-15.609h16.891
			C167.795,163.578,165.18,164.568,162.589,168.616z M195.86,290.309c-24.483-27.647-20.436-58.994-20.874-61.747v-46.241
			c0.116-0.654-0.475-3.717,1.35-5.984l18.134-14.119h123.605c0,0,0.001,0.001,0.001,0.001c-0.001,0,0,0,0.001,0.001
			c0.009,0.007,0.016,0.013,0.025,0.019c0.312,0.243,3.497,2.729,18.152,14.161c2.581,3.442,0.518,5.182,1.306,52.162
			c-0.494,3.103,3.933,33.733-20.874,61.747C284.51,326.643,228.398,327.05,195.86,290.309z M212.393,341.867
			c1.119,1.624-4.154-5.574,14.663,19.697l-22.633-13.715L212.393,341.867z M190.283,356.82l58.221,35.279v22.941h-7.09
			c-20.922,0-39.332-12.602-46.905-32.104l-9.347-24.076L190.283,356.82z M218.107,496.999h-36.074v-30.621h36.074V496.999z
			 M233.107,497.001L233.107,497.001v-33.091c0-6.91-5.622-12.532-12.533-12.532h-41.01c-6.91,0-12.532,5.622-12.532,12.532V497
			h-15.392v-16.796c0-4.143-3.357-7.5-7.5-7.5s-7.5,3.357-7.5,7.5V497h-25.47c-8.095,0-14.377-7.372-12.749-15.564
			c17.018-85.373,15.513-78.111,16.191-80.572c4.097-12.565,10.712-17.978,22.027-22.677v67.018c0,4.143,3.357,7.5,7.5,7.5
			c4.143,0,7.5-3.357,7.5-7.5v-72.985l19.586-7.805l9.299,23.952c9.829,25.316,33.729,41.675,60.888,41.675h7.11l0.225,66.959
			H233.107z M226.05,335.099c0-0.143,0-7.362,0-7.262c18.781,6.344,39.815,6.787,59.903,0.148v7.113l-29.951,40.22L226.05,335.099z
			 M263.504,392.098l58.217-35.277l5.117,2.039l-9.347,24.077c-7.572,19.503-25.982,32.104-46.904,32.104h-7.083V392.098z
			 M329.966,496.999h-36.074v-30.621h36.074V496.999z M360.359,496.999h-0.002h-15.392v-33.089c0-6.91-5.622-12.532-12.532-12.532
			h-41.008c-6.911,0-12.533,5.622-12.533,12.532v33.089H263.75c-0.072-21.539-0.215-64.353-0.224-66.958h7.061
			c27.158,0,51.058-16.358,60.887-41.676l9.299-23.951l19.586,7.804V496.999z"/>
	</g>
</g>
<g>
</g>
<g>
</g>
<g>
</g>
<g>
</g>
<g>
</g>
<g>
</g>
<g>
</g>
<g>
</g>
<g>
</g>
<g>
</g>
<g>
</g>
<g>
</g>
<g>
</g>
<g>
</g>
<g>
</g>
</svg>
