<?xml version="1.0" encoding="iso-8859-1"?>
<!-- Generator: Adobe Illustrator 19.0.0, SVG Export Plug-In . SVG Version: 6.00 Build 0)  -->
<svg version="1.1" id="Capa_1" xmlns="http://www.w3.org/2000/svg" xmlns:xlink="http://www.w3.org/1999/xlink" x="0px" y="0px"
	 viewBox="0 0 512 512" style="enable-background:new 0 0 512 512;" xml:space="preserve">
<g>
	<g>
		<path d="M506.71,493.179l-75.39-40.76c-4.857-2.628-10.925-0.817-13.552,4.041c-2.626,4.857-0.817,10.925,4.041,13.552
			l75.39,40.76c1.512,0.817,3.141,1.205,4.747,1.205c3.555,0,6.995-1.9,8.805-5.245C513.376,501.872,511.568,495.806,506.71,493.179
			z"/>
	</g>
</g>
<g>
	<g>
		<path d="M509.765,101.849c-8.073-9.949-17.681-18.511-28.557-25.449c-26.923-17.177-58.922-22.841-90.103-15.95
			c-26.884,5.941-50.38,20.608-67.356,41.789c-1.737-12.009-5.284-23.607-10.616-34.636c-2.404-4.972-8.38-7.052-13.355-4.651
			c-4.971,2.404-7.053,8.382-4.65,13.355c6.378,13.193,9.696,27.376,9.862,42.155c0.057,5.025-0.26,10.018-0.946,14.947
			L267.49,97.668h6.287c5.522,0,9.999-4.477,9.999-9.999s-4.477-9.999-9.999-9.999h-26.74l-17.64-17.248h7.343
			c5.522,0,9.999-4.477,9.999-9.999s-4.477-9.999-9.999-9.999h-27.796l-19.548-19.114c4.914-0.796,9.897-1.226,14.922-1.282
			c16.781-0.206,33.429,3.879,48.121,11.764c4.864,2.611,10.927,0.784,13.539-4.083c2.611-4.865,0.784-10.927-4.083-13.539
			c-17.658-9.477-37.646-14.36-57.802-14.139c-12.899,0.145-25.58,2.338-37.692,6.519c-3.277,1.131-5.733,3.879-6.493,7.261
			c-0.76,3.383,0.287,6.916,2.766,9.34l57.851,56.564c-39.304-7.874-81.715,3.385-112.123,33.792
			c-9.454,9.453-17.261,20.266-23.206,32.138c-1.552,3.1-1.388,6.782,0.434,9.731c1.822,2.95,5.041,4.745,8.507,4.745h21.923
			c-5.638,15.882-6.5,32.867-2.849,48.926c-31.844-13.078-69.863-6.715-95.686,19.108c-6.707,6.707-12.248,14.381-16.467,22.809
			c-1.552,3.1-1.389,6.782,0.433,9.731c1.822,2.949,5.041,4.745,8.507,4.745h59.023c-19.625,16.14-32.163,40.599-32.163,67.932
			c0,9.486,1.508,18.83,4.483,27.772c1.094,3.29,3.814,5.777,7.187,6.575c0.763,0.18,1.535,0.268,2.301,0.268
			c2.621,0,5.173-1.032,7.07-2.929l74.829-74.829c11.79,39.975,18.698,81.269,20.531,122.926L5.252,493.179
			c-4.857,2.627-6.666,8.693-4.041,13.552c1.81,3.347,5.25,5.245,8.805,5.245c1.606,0,3.235-0.388,4.746-1.205l158.963-85.944
			c51.505-27.846,113.004-27.846,164.509,0l27.175,14.692c4.857,2.626,10.924,0.817,13.552-4.041
			c2.626-4.857,0.817-10.925-4.041-13.551l-27.175-14.692c-21.676-11.719-44.938-19.01-68.59-21.888v-6.509
			c0.001-29.321,2.289-58.79,6.801-87.799c6.494,4.12,14.183,6.516,22.426,6.516c21.085,0,38.584-15.621,41.548-35.897
			c3.907,1.265,8.069,1.957,12.392,1.957c21.915,0,39.788-17.578,40.293-39.373l86.736,55.338c1.633,1.042,3.502,1.57,5.378,1.57
			c1.482,0,2.968-0.329,4.346-0.994c3.122-1.507,5.24-4.523,5.599-7.97c1.439-13.828,0.636-27.77-2.385-41.441
			c-7.478-33.838-27.686-62.739-56.901-81.379c-8.23-5.25-16.897-9.51-25.859-12.753l84.629-18.702
			c3.385-0.749,6.141-3.196,7.283-6.469C512.585,108.171,511.95,104.541,509.765,101.849z M111.881,140.126
			c3.207-4.413,6.767-8.58,10.663-12.475c40.509-40.51,106.424-40.511,146.934,0c3.896,3.895,7.456,8.063,10.662,12.475h-33.04
			l-24.564-24.564c-3.905-3.905-10.236-3.905-14.141,0c-3.905,3.905-3.905,10.236,0,14.14l10.423,10.423h-28.783l-19.181-19.181
			c-3.905-3.905-10.236-3.905-14.141,0c-3.906,3.905-3.905,10.236,0,14.141l5.04,5.04H111.881z M192.164,218.757h6.748
			l-37.133,37.133c-0.407-3.397-0.612-6.827-0.612-10.277c0-47.139,38.35-85.49,85.49-85.49c3.451,0,6.88,0.205,10.277,0.612
			L218.91,198.76h-26.746c-5.522,0-9.999,4.477-9.999,9.999S186.642,218.757,192.164,218.757z M174.03,169.179v-9.056h10.904
			C181.098,162.899,177.454,165.923,174.03,169.179z M56.992,337.687c-0.09-1.433-0.135-2.871-0.135-4.314
			c0-37.458,30.475-67.932,67.932-67.932c1.443,0,2.881,0.045,4.314,0.135L56.992,337.687z M28.713,245.443
			c0.949-1.076,1.935-2.125,2.955-3.146c26.487-26.486,69.586-26.486,96.071,0c1.021,1.02,2.006,2.069,2.955,3.146H28.713z
			 M137.525,160.438h16.507v32.544c0,0.64,0.066,1.263,0.181,1.869c-5.543,10.056-9.493,21.107-11.508,32.811
			C129.314,207.916,127.159,182.271,137.525,160.438z M177.127,294.681c11.614,31.38,19.761,64.049,24.252,97.203
			c-9.742,2.889-19.316,6.567-28.638,11.033c-2.464-39.985-9.428-79.584-20.735-118.013c0.555,0.245,1.127,0.459,1.729,0.601
			c0.763,0.18,1.534,0.268,2.3,0.268c2.621,0,5.173-1.032,7.07-2.929l73.29-73.29c-13.765,37.365-23.29,76.291-28.361,115.787
			c-3.533-12.694-7.58-25.243-12.153-37.599c-1.917-5.179-7.668-7.824-12.848-5.907S175.21,289.503,177.127,294.681z
			 M266.388,255.561c0,5.542,1.089,10.832,3.049,15.681c-0.404,0.819-0.708,1.702-0.879,2.645
			c-6.237,34.538-9.399,69.85-9.399,104.951v5.147c-11.828-0.197-23.665,0.701-35.373,2.694
			c0.722-68.125,15.393-136.058,42.747-198.447c-0.087,1.102-0.145,2.212-0.145,3.336c0,12.808,5.77,24.287,14.839,31.997
			C272.158,231.274,266.388,242.754,266.388,255.561z M308.384,277.559c-12.13,0-21.998-9.868-21.998-21.998
			s9.868-21.998,21.998-21.998s21.998,9.868,21.998,21.998C330.382,267.69,320.513,277.559,308.384,277.559z M308.384,213.566
			c-12.13,0-21.998-9.869-21.998-21.998c0-12.13,9.868-21.998,21.998-21.998s21.998,9.868,21.998,21.998
			S320.514,213.566,308.384,213.566z M362.324,243.619c-11.204,0-20.319-9.115-20.319-20.319s9.115-20.319,20.319-20.319
			c11.204,0,20.319,9.115,20.319,20.319S373.527,243.619,362.324,243.619z M434.632,166.227
			c24.713,15.765,41.806,40.212,48.131,68.835c1.329,6.011,2.15,12.082,2.463,18.167l-40.074-25.567l-7.503-33.952
			c-1.191-5.392-6.529-8.796-11.921-7.606c-5.392,1.192-8.797,6.529-7.606,11.921l3.188,14.426l-16.965-10.824l-5.938-26.872
			c-1.192-5.391-6.528-8.793-11.921-7.606c-5.392,1.192-8.797,6.529-7.606,11.921l1.623,7.345l-46.089-29.405
			c5.65-2.281,11.502-4.094,17.512-5.422C380.549,145.261,409.921,150.461,434.632,166.227z M452.3,108.894l-28.371-18.101
			c-4.656-2.971-10.837-1.605-13.807,3.051c-2.971,4.656-1.604,10.837,3.051,13.808l11.513,7.345l-25.982,5.741l-26.054-16.623
			c-4.654-2.97-10.838-1.604-13.807,3.052c-2.971,4.656-1.604,10.837,3.052,13.808l9.195,5.866l-45.21,9.991
			c2.023-4.548,4.391-8.954,7.095-13.191c14.303-22.419,36.481-37.926,62.447-43.663c7.209-1.594,14.47-2.381,21.68-2.381
			c18.757,0,37.159,5.33,53.353,15.663c4.237,2.703,8.242,5.7,11.993,8.972L452.3,108.894z"/>
	</g>
</g>
<g>
	<g>
		<path d="M292.13,37.251l-0.188-0.197c-3.814-3.993-10.144-4.138-14.136-0.323c-3.994,3.815-4.138,10.144-0.323,14.136l0.123,0.13
			c1.966,2.078,4.612,3.126,7.264,3.126c2.467,0,4.938-0.908,6.871-2.737C295.752,47.591,295.926,41.261,292.13,37.251z"/>
	</g>
</g>
<g>
</g>
<g>
</g>
<g>
</g>
<g>
</g>
<g>
</g>
<g>
</g>
<g>
</g>
<g>
</g>
<g>
</g>
<g>
</g>
<g>
</g>
<g>
</g>
<g>
</g>
<g>
</g>
<g>
</g>
</svg>
